<mxfile host="app.diagrams.net" agent="Mozilla/5.0 (Windows NT 10.0; Win64; x64) AppleWebKit/537.36 (KHTML, like Gecko) Chrome/129.0.0.0 Safari/537.36" version="24.7.17">
  <diagram name="Page-1" id="55ijNNeH4TxK_P1EvQzD">
    <mxGraphModel grid="1" page="1" gridSize="10" guides="1" tooltips="1" connect="1" arrows="1" fold="1" pageScale="1" pageWidth="850" pageHeight="1100" math="0" shadow="0">
      <root>
        <mxCell id="0" />
        <mxCell id="1" parent="0" />
        <mxCell id="OHlSDr-8CtgP3tiL7i1z-2" value="SAFEKASASIRO" style="swimlane;whiteSpace=wrap;html=1;startSize=23;" vertex="1" parent="1">
          <mxGeometry x="330" y="90" width="300" height="670" as="geometry" />
        </mxCell>
        <mxCell id="OHlSDr-8CtgP3tiL7i1z-3" value="Login" style="ellipse;whiteSpace=wrap;html=1;" vertex="1" parent="OHlSDr-8CtgP3tiL7i1z-2">
          <mxGeometry x="80" y="40" width="127.5" height="70" as="geometry" />
        </mxCell>
        <mxCell id="OHlSDr-8CtgP3tiL7i1z-14" value="Request Collection of Rubbish" style="ellipse;whiteSpace=wrap;html=1;" vertex="1" parent="OHlSDr-8CtgP3tiL7i1z-2">
          <mxGeometry x="80" y="140" width="127.5" height="70" as="geometry" />
        </mxCell>
        <mxCell id="OHlSDr-8CtgP3tiL7i1z-15" value="Rubbish collected and dispatcher confirms completion" style="ellipse;whiteSpace=wrap;html=1;" vertex="1" parent="OHlSDr-8CtgP3tiL7i1z-2">
          <mxGeometry x="80" y="410" width="130" height="80" as="geometry" />
        </mxCell>
        <mxCell id="OHlSDr-8CtgP3tiL7i1z-16" value="Assign&amp;nbsp; on-ground collector" style="ellipse;whiteSpace=wrap;html=1;" vertex="1" parent="OHlSDr-8CtgP3tiL7i1z-2">
          <mxGeometry x="80" y="320" width="127.5" height="70" as="geometry" />
        </mxCell>
        <mxCell id="OHlSDr-8CtgP3tiL7i1z-17" value="user rates the service" style="ellipse;whiteSpace=wrap;html=1;" vertex="1" parent="OHlSDr-8CtgP3tiL7i1z-2">
          <mxGeometry x="86.25" y="520" width="127.5" height="70" as="geometry" />
        </mxCell>
        <mxCell id="OHlSDr-8CtgP3tiL7i1z-18" value="Receive request and arrange for collection" style="ellipse;whiteSpace=wrap;html=1;" vertex="1" parent="OHlSDr-8CtgP3tiL7i1z-2">
          <mxGeometry x="80" y="230" width="127.5" height="70" as="geometry" />
        </mxCell>
        <mxCell id="OHlSDr-8CtgP3tiL7i1z-4" value="User" style="shape=umlActor;verticalLabelPosition=bottom;verticalAlign=top;html=1;outlineConnect=0;" vertex="1" parent="1">
          <mxGeometry x="60" y="320" width="40" height="80" as="geometry" />
        </mxCell>
        <mxCell id="OHlSDr-8CtgP3tiL7i1z-19" value="Dispatcher" style="shape=umlActor;verticalLabelPosition=bottom;verticalAlign=top;html=1;outlineConnect=0;" vertex="1" parent="1">
          <mxGeometry x="780" y="260" width="30" height="60" as="geometry" />
        </mxCell>
        <mxCell id="LP4Pg4Z0m5B7OYynHUsp-3" value="" style="endArrow=classic;html=1;rounded=0;" edge="1" parent="1" target="OHlSDr-8CtgP3tiL7i1z-3">
          <mxGeometry width="50" height="50" relative="1" as="geometry">
            <mxPoint x="780" y="300" as="sourcePoint" />
            <mxPoint x="830" y="250" as="targetPoint" />
          </mxGeometry>
        </mxCell>
        <mxCell id="LP4Pg4Z0m5B7OYynHUsp-4" value="" style="endArrow=classic;html=1;rounded=0;entryX=1;entryY=0.5;entryDx=0;entryDy=0;" edge="1" parent="1" target="OHlSDr-8CtgP3tiL7i1z-18">
          <mxGeometry width="50" height="50" relative="1" as="geometry">
            <mxPoint x="780" y="300" as="sourcePoint" />
            <mxPoint x="830" y="250" as="targetPoint" />
          </mxGeometry>
        </mxCell>
        <mxCell id="LP4Pg4Z0m5B7OYynHUsp-5" value="" style="endArrow=classic;html=1;rounded=0;entryX=0;entryY=0.5;entryDx=0;entryDy=0;" edge="1" parent="1" target="OHlSDr-8CtgP3tiL7i1z-3">
          <mxGeometry width="50" height="50" relative="1" as="geometry">
            <mxPoint x="100" y="360" as="sourcePoint" />
            <mxPoint x="150" y="310" as="targetPoint" />
          </mxGeometry>
        </mxCell>
        <mxCell id="LP4Pg4Z0m5B7OYynHUsp-6" value="" style="endArrow=classic;html=1;rounded=0;entryX=0.022;entryY=0.686;entryDx=0;entryDy=0;entryPerimeter=0;" edge="1" parent="1" target="OHlSDr-8CtgP3tiL7i1z-14">
          <mxGeometry width="50" height="50" relative="1" as="geometry">
            <mxPoint x="100" y="360" as="sourcePoint" />
            <mxPoint x="150" y="310" as="targetPoint" />
          </mxGeometry>
        </mxCell>
        <mxCell id="hHJbvhtkehKIKL7x7A-c-1" value="&lt;b&gt;&lt;font style=&quot;font-size: 18px;&quot;&gt;USE CASE DIAGRAM FOR&amp;nbsp;&lt;/font&gt;&lt;/b&gt;&lt;b style=&quot;font-size: 20px;&quot;&gt;SAFEKASASIRO&lt;/b&gt;" style="text;html=1;align=center;verticalAlign=middle;resizable=0;points=[];autosize=1;strokeColor=none;fillColor=none;" vertex="1" parent="1">
          <mxGeometry x="275" y="10" width="410" height="40" as="geometry" />
        </mxCell>
        <mxCell id="ePcgFb6tCuh2jlZqT5Ei-2" value="" style="endArrow=classic;html=1;rounded=0;entryX=1;entryY=0.5;entryDx=0;entryDy=0;" edge="1" parent="1" target="OHlSDr-8CtgP3tiL7i1z-16">
          <mxGeometry width="50" height="50" relative="1" as="geometry">
            <mxPoint x="780" y="300" as="sourcePoint" />
            <mxPoint x="519" y="365" as="targetPoint" />
          </mxGeometry>
        </mxCell>
        <mxCell id="ePcgFb6tCuh2jlZqT5Ei-3" value="" style="endArrow=classic;html=1;rounded=0;entryX=1;entryY=0.5;entryDx=0;entryDy=0;" edge="1" parent="1" target="OHlSDr-8CtgP3tiL7i1z-15">
          <mxGeometry width="50" height="50" relative="1" as="geometry">
            <mxPoint x="780" y="300" as="sourcePoint" />
            <mxPoint x="548" y="455" as="targetPoint" />
          </mxGeometry>
        </mxCell>
        <mxCell id="ePcgFb6tCuh2jlZqT5Ei-4" value="" style="endArrow=classic;html=1;rounded=0;entryX=0;entryY=0.5;entryDx=0;entryDy=0;" edge="1" parent="1" target="OHlSDr-8CtgP3tiL7i1z-17">
          <mxGeometry width="50" height="50" relative="1" as="geometry">
            <mxPoint x="100" y="360" as="sourcePoint" />
            <mxPoint x="423" y="288" as="targetPoint" />
          </mxGeometry>
        </mxCell>
      </root>
    </mxGraphModel>
  </diagram>
</mxfile>
